<svg width="100" height="100" viewBox="0 0 100 100" fill="none" xmlns="http://www.w3.org/2000/svg">
<path d="M79.8519 38.4286C73.1163 22.3011 55.9191 16.3089 40.0228 21.4444C23.8409 26.6752 10.3379 41.529 5.64199 57.6927C4.66745 61.0606 9.6036 62.1892 10.8048 59.048C16.0582 45.3274 26.4654 33.2794 40.2676 27.7721C46.2466 25.3466 52.8373 24.8645 59.1056 26.3942C67.3371 28.3614 72.1871 34.1633 77.3544 40.3006C78.5964 41.7783 80.4593 39.9063 79.8519 38.4286Z" fill="black"/>
<path d="M90.4974 52.7658C89.0197 45.0239 87.9228 36.3029 83.2722 29.6942C83.1181 29.4506 82.8762 29.2757 82.5966 29.2058C82.317 29.1358 82.0212 29.1761 81.7706 29.3183C81.5199 29.4606 81.3336 29.6938 81.2503 29.9697C81.167 30.2456 81.1931 30.543 81.3231 30.8002C84.1969 37.3908 85.4751 44.1627 86.504 51.1839C81.9124 50.6626 77.289 49.3844 72.6973 49.5793C72.2863 49.5947 71.8941 49.7555 71.5904 50.033C71.2868 50.3105 71.0915 50.6867 71.0393 51.0947C70.9871 51.5027 71.0813 51.916 71.3053 52.261C71.5292 52.606 71.8683 52.8604 72.2622 52.9788C77.6046 54.4474 83.1259 55.1629 88.6662 55.1047C88.9501 55.0979 89.229 55.0282 89.4828 54.9008C89.7366 54.7734 89.959 54.5913 90.1341 54.3677C90.3092 54.1441 90.4326 53.8845 90.4954 53.6075C90.5582 53.3305 90.5589 53.0431 90.4974 52.7658Z" fill="black"/>
</svg>
