<svg width="100" height="99" viewBox="0 0 100 99" fill="none" xmlns="http://www.w3.org/2000/svg">
<path d="M18.8095 41.2719C23.8224 24.5288 40.2991 16.7717 56.6451 20.2175C73.2851 23.7282 88.2668 37.0892 94.6265 52.6735C95.9478 55.921 91.1566 57.5594 89.6337 54.561C82.9748 41.4647 71.3653 30.5705 57.0631 26.5362C50.8633 24.7489 44.2583 24.9583 38.1842 27.1349C30.2035 29.9517 25.9865 36.2288 21.489 42.8726C20.4083 44.472 18.3599 42.805 18.8095 41.2719Z" fill="black"/>
<path d="M9.72233 56.6431C10.3827 48.7892 10.562 40.0013 14.4963 32.9426C14.6241 32.6843 14.8464 32.4851 15.1171 32.3863C15.3879 32.2875 15.6862 32.2966 15.9504 32.4119C16.2145 32.5271 16.4242 32.7396 16.5359 33.0053C16.6476 33.271 16.6527 33.5695 16.5503 33.8388C14.3812 40.6937 13.8178 47.5621 13.5284 54.6524C18.0405 53.6541 22.5049 51.8996 27.0918 51.6134C27.5022 51.5858 27.9091 51.7047 28.24 51.9489C28.571 52.1932 28.8045 52.5469 28.8991 52.9472C28.9937 53.3475 28.9432 53.7684 28.7565 54.135C28.5699 54.5015 28.2593 54.7899 27.8799 54.9489C22.7202 56.9678 17.304 58.2565 11.788 58.7778C11.5049 58.8007 11.2203 58.7606 10.9545 58.6604C10.6888 58.5602 10.4486 58.4024 10.2511 58.1983C10.0536 57.9942 9.90373 57.7489 9.81231 57.48C9.72089 57.2111 9.69016 56.9253 9.72233 56.6431Z" fill="black"/>
</svg>
